<svg id="_25" data-name="25" xmlns="http://www.w3.org/2000/svg" xmlns:xlink="http://www.w3.org/1999/xlink" viewBox="0 0 173 44"><defs><style>.cls-1{fill:none;}.cls-2{clip-path:url(#clip-path);}.cls-3{fill:url(#radial-gradient);}.cls-4{fill:#00623a;fill-rule:evenodd;}.cls-5{clip-path:url(#clip-path-2);}.cls-6{fill:url(#radial-gradient-2);}.cls-7{clip-path:url(#clip-path-3);}.cls-8{fill:url(#radial-gradient-3);}</style><clipPath id="clip-path"><rect class="cls-1" x="1.32" y="27.6" width="129.33" height="2.38"/></clipPath><radialGradient id="radial-gradient" cx="-253.29" cy="240.61" r="1.2" gradientTransform="matrix(157.66, 0, 0, -157.77, 39955.41, 37961.99)" gradientUnits="userSpaceOnUse"><stop offset="0" stop-color="#ffec00"/><stop offset="0.01" stop-color="#ffec00"/><stop offset="0.92" stop-color="#e8530e"/><stop offset="1" stop-color="#e8530e"/></radialGradient><clipPath id="clip-path-2"><path class="cls-1" d="M144.1,10.82a9.82,9.82,0,0,0-.13,1.55,9.66,9.66,0,0,0,19.31,0,9.83,9.83,0,0,0-.12-1.55Z"/></clipPath><radialGradient id="radial-gradient-2" cx="-253.54" cy="239.78" r="1.2" gradientTransform="matrix(50.92, 0, 0, -50.92, 13035.67, 12217.3)" gradientUnits="userSpaceOnUse"><stop offset="0" stop-color="#ffec00"/><stop offset="0.01" stop-color="#ffec00"/><stop offset="0.11" stop-color="#fee800"/><stop offset="0.23" stop-color="#fcda02"/><stop offset="0.35" stop-color="#f9c404"/><stop offset="0.48" stop-color="#f4a606"/><stop offset="0.61" stop-color="#ef7f0a"/><stop offset="0.73" stop-color="#e8530e"/><stop offset="1" stop-color="#e8530e"/></radialGradient><clipPath id="clip-path-3"><path class="cls-1" d="M144,25.23V38.64a3.63,3.63,0,0,0,3.63,4h.73V25.23Zm7.4,17.41h4.37V25.23h-4.37Zm7.41-17.41V42.64h.75a3.58,3.58,0,0,0,3.62-3.57V25.23Z"/></clipPath><radialGradient id="radial-gradient-3" cx="-253.61" cy="239.49" r="1.2" gradientTransform="matrix(42.46, 0, 0, -42.46, 10901.67, 10186.1)" gradientUnits="userSpaceOnUse"><stop offset="0" stop-color="#ffec00"/><stop offset="0.01" stop-color="#ffec00"/><stop offset="0.88" stop-color="#e8530e"/><stop offset="1" stop-color="#e8530e"/></radialGradient></defs><g class="cls-2"><rect class="cls-3" x="1.32" y="27.6" width="129.33" height="2.38"/></g><path class="cls-4" d="M34.62,37.64l-2.81-5.33H30.46v8h1.29V35.08l2.77,5.21h1.39v-8H34.62Zm-29.14,0L2.67,32.31H1.32v8H2.61V35.08l2.77,5.21H6.77v-8H5.48Zm51.64-1.59a1.81,1.81,0,0,0,.7-.7,2.13,2.13,0,0,0,.26-1,2,2,0,0,0-.22-.94,1.84,1.84,0,0,0-.52-.66,1.77,1.77,0,0,0-.72-.34,8.48,8.48,0,0,0-1.21-.07H52.66v8H55c.88,0,1.44,0,1.68,0a1.86,1.86,0,0,0,.92-.38,2.17,2.17,0,0,0,.6-.83A2.54,2.54,0,0,0,58.42,38a2.17,2.17,0,0,0-.34-1.2,1.81,1.81,0,0,0-1-.73M54,33.63h.8c.66,0,1,0,1.19,0a.77.77,0,0,1,.52.29.9.9,0,0,1,.18.59.92.92,0,0,1-.2.63.82.82,0,0,1-.57.28,9.48,9.48,0,0,1-1,0H54Zm2.74,4.95a.81.81,0,0,1-.5.32,5.54,5.54,0,0,1-.94.05H54V36.81h1.13a4,4,0,0,1,1.23.12.85.85,0,0,1,.43.36,1.17,1.17,0,0,1,.15.61,1.06,1.06,0,0,1-.2.68M45.73,32.37H44.34v7.92h4.84V39H45.73ZM26,32.17a3.32,3.32,0,0,0-1.48.32,2.76,2.76,0,0,0-.88.71A3.94,3.94,0,0,0,23,34.3a6.06,6.06,0,0,0-.31,2.05,4.58,4.58,0,0,0,.9,3A3,3,0,0,0,26,40.43a3,3,0,0,0,2.42-1.1,4.54,4.54,0,0,0,.9-3,4.58,4.58,0,0,0-.91-3A3,3,0,0,0,26,32.17m1.38,6.19a1.65,1.65,0,0,1-1.36.69,1.63,1.63,0,0,1-1.37-.7,3.33,3.33,0,0,1-.54-2.06,3.36,3.36,0,0,1,.53-2.06A1.66,1.66,0,0,1,26,33.55a1.68,1.68,0,0,1,1.38.68,3.44,3.44,0,0,1,.51,2,3.44,3.44,0,0,1-.53,2.09m-13.57-4.7h2v6.63h1.39V33.66h2V32.31H13.83Zm6.44,6.63h1.39v-8H20.27Zm19.08-8-2.67,8h1.47l.57-1.82h2.74l.6,1.82h1.51l-2.75-8Zm-.21,4.82.93-3,.94,3ZM10.21,32.31l-2.68,8H9l.57-1.82h2.74l.6,1.82h1.51l-2.75-8ZM10,37.13l.93-3,1,3Zm80.51,3.16H91.9V36.9h2.87V35.54H91.9V33.66h3.32V32.31H90.51Zm34.69-6.63h2v6.63h1.39V33.66h2V32.31H125.2Zm-24.78,3.11h3.45V35.43h-3.45V33.66h3.7V32.31H99v8h5.23V38.94h-3.84Zm8.21.58h1.59v1a2.9,2.9,0,0,1-.76.48,2.12,2.12,0,0,1-.87.2,1.73,1.73,0,0,1-1.43-.71,3.5,3.5,0,0,1-.54-2.13,3.11,3.11,0,0,1,.54-2,1.75,1.75,0,0,1,1.44-.67,1.46,1.46,0,0,1,1,.34,1.74,1.74,0,0,1,.55.94l1.38-.31a3,3,0,0,0-.93-1.72,2.92,2.92,0,0,0-2-.63,3.16,3.16,0,0,0-1.64.4,3.26,3.26,0,0,0-1.32,1.49,5.16,5.16,0,0,0-.45,2.21,5.36,5.36,0,0,0,.41,2.13,3.11,3.11,0,0,0,1.2,1.5,3.34,3.34,0,0,0,1.88.53,3.87,3.87,0,0,0,1.67-.38,3.81,3.81,0,0,0,1.27-.86V36h-3Zm14.54-4.93a7.79,7.79,0,0,0-1.65-.11h-2.23v8h1.39v-3h.91a6.48,6.48,0,0,0,1.43-.12,1.77,1.77,0,0,0,.72-.37,2.17,2.17,0,0,0,.58-.79,3.28,3.28,0,0,0-.16-2.8,2,2,0,0,0-1-.78m-.2,3a1,1,0,0,1-.43.4,3.31,3.31,0,0,1-1.1.12h-.76V33.66h.67a5.58,5.58,0,0,1,1,.05,1,1,0,0,1,.56.36,1.15,1.15,0,0,1,.21.71,1.21,1.21,0,0,1-.15.62m-7.75.07-1.61-3.16H112l2.51,4.62v3.36h1.39V37l2.52-4.64h-1.59ZM70.69,37.64l-2.81-5.33H66.53v8h1.28V35.08l2.78,5.21H72v-8H70.69Zm8.83-5.33H77.65l-2.8,3.54V32.31H73.46v8h1.39V37.88L76,36.54l1.89,3.75h1.79l-2.72-4.87Zm-17.95,0-2.68,8h1.48l.56-1.82h2.74l.6,1.82h1.51l-2.74-8Zm-.22,4.82.93-3,.95,3Zm24.73-5a3.32,3.32,0,0,0-1.48.32,2.79,2.79,0,0,0-.89.71,3.88,3.88,0,0,0-.63,1.1,5.59,5.59,0,0,0-.32,2.05,4.58,4.58,0,0,0,.9,3,3,3,0,0,0,2.44,1.09,3,3,0,0,0,2.42-1.1,4.59,4.59,0,0,0,.9-3,4.58,4.58,0,0,0-.91-3,3,3,0,0,0-2.43-1.1m1.38,6.19a1.68,1.68,0,0,1-1.36.69,1.66,1.66,0,0,1-1.37-.7,3.27,3.27,0,0,1-.54-2.06,3.36,3.36,0,0,1,.52-2.06,1.67,1.67,0,0,1,1.39-.68,1.65,1.65,0,0,1,1.37.68,3.35,3.35,0,0,1,.51,2,3.44,3.44,0,0,1-.52,2.09m78.37-37H141.42a5.89,5.89,0,0,0-5.89,5.89V32c0,3,1.84,5.52,4.78,5.85V6.18H167V37.86c2.92-.35,4.74-2.83,4.74-5.85V7.25a5.88,5.88,0,0,0-5.89-5.89M42.9,11.67l.91-.14c3.23-.61,6.26-4.22,6.38-4.36s.26,0,.26,0a1.72,1.72,0,0,0,.55.21c.25,0,.36-.33.36-.33a7.46,7.46,0,0,0-.17-4.09c-.22-.6-1-.69-1-.69s-1-.3-1.73,1.16A2.92,2.92,0,0,0,49,6.47c.16.15,0,.36,0,.36-.7,1.14-5.79,4.52-6,4.66s-.12.18-.05.18M96.76,6.35c-.7,1.14-5.79,4.53-6,4.67s-.11.17,0,.17.91-.14.91-.14c3.23-.61,6.27-4.22,6.38-4.36a.18.18,0,0,1,.26,0,2,2,0,0,0,.55.21c.25,0,.36-.33.36-.33a7.61,7.61,0,0,0-.26-4.19,1,1,0,0,0-1-.6s-1-.3-1.73,1.17A2.89,2.89,0,0,0,96.8,6c.15.15,0,.35,0,.35m9.46,6.16c-.41,1.05.37,1.59,1.24,1.62a1.43,1.43,0,0,0,1.43-1.32c.07-.33-.08-.9-.94-1.12a1.44,1.44,0,0,0-1.73.82m.17-2.73c.51-.3,9.58-4.56,10.71-5.22a7.41,7.41,0,0,0,2.34-2.27c.26-.48-.93-.06-.93-.06-4.45,1.37-11.67,5.52-11.67,5.52-1,.54-1.13.9-1.2,1.26s-.24.47-.15.92.39.15.9-.15M81,5.72a2,2,0,0,0-2.8.42,3.28,3.28,0,0,0-.06,3.61c.45.69.12.66.21,1.23s.63.38.78,0,.56-.63,1-.93,1.73-1.28,2-2.21S81.4,7.33,81,7.33s-.06-.41.21-.77S81,5.72,81,5.72m-42,16.85c-.28,2,.27,1,.27,1,1.46-2.11,1.57-7.1,1.57-7.1a72.25,72.25,0,0,0-.81-8.9c-.12-.83.2-.57.51-.35s.44-.08.44-.08a8.2,8.2,0,0,0-1.65-4c-.63-.95-1.16,1.49-1.16,1.49-.68,2.48.92,10.08,1.11,11.86a27.27,27.27,0,0,1-.28,6.09M52.29,11.16c-.11,0-.3.07-.46-.57a5.15,5.15,0,0,0-.5-1.29.39.39,0,0,0-.73,0c-.14.33.23,1.28.37,1.76a.47.47,0,0,1-.3.61c-.57.22-.64-.85-.68-1.17a1,1,0,0,0-.44-.87c-.34-.2-.53.4-.53.4a6.21,6.21,0,0,0,.7,2.75c.11.35.8.61,1.68-.13S52.77,12,53,12a.18.18,0,0,0,.2-.19,4.33,4.33,0,0,0-.24-2.31c-.19-.51-.81-1.06-1.09-.86s.33,1,.55,1.53.1.94-.1,1m46.46.44c.72-.34.8-1,.53-1.84-.33-1-1.9.17-1.9.17-2,1.32-2.63,2-2.21,3.22.29.84,1.92,1.84,2.13,2.24a.55.55,0,0,1,0,.48c-.67,1.07-2.86.87-3.7.78s-.59.18-.59.18a3.59,3.59,0,0,0,2.31,1.49c3.79.44,4.52-1.78,4.52-1.78a2,2,0,0,0-1-2.5s-1.61-.84-1.68-1.3c-.11-.69,1.13-.94,1.55-1.14M75.9,5.37c3.43-1,4.78-2.54,5.07-3s-.15-.44-.15-.44a12.14,12.14,0,0,0-4.44,2.14,3.15,3.15,0,0,0-.74.95c-.29.52.26.35.26.35m6.87,11.56a.38.38,0,0,1,0-.36,5,5,0,0,1,1.84-2c.24-.1.34.23.34.23.5,1.25.07,4.08.07,4.08-.33,3.63.16,4.11.23,4.35s.22.08.22.08a13,13,0,0,0,.65-1.51c.65-1.95.43-8.29.44-8.7a1.61,1.61,0,0,1,.19-.83C86.8,12.2,87.88,11,87.88,11,93.82,4.81,94,2.33,94.13,2.08S94,1.92,94,1.92a20.66,20.66,0,0,0-3,2.94,28.45,28.45,0,0,1-4.35,4.87c-.29.35-.39,0-.44-.15a19.2,19.2,0,0,1-.39-2.51c0-.29.53,0,.53,0,.58.18.32-.75.32-.75a14.41,14.41,0,0,0-1.82-4c-.34-.41-.51.38-.51.38-.35,1.22,0,3.28,0,7.18s-1.7,4.46-2.5,4.75a1.41,1.41,0,0,1-1.66-.43c-.49-.43-6.12-5.82-6.71-6.37s-.07-.63.17-.89.09-.64-.27-.79-3.42-2-3.74-2.25-.4.22-.4.22c-.45,1.93,1.27,3.15,2,4s.58,2.14-.14,3.42a8.65,8.65,0,0,0-1,3.34,1,1,0,0,1-.75.83c-4,2.2-8.62,1.8-10.41.1s-1.72-5.19-2-9-1-5-1.22-5.19-.43.9-.43.9c-.69,2.38.29,6.33.44,10s-2.59,4.07-2.93,4.15c-.17,0-.22.18-.24.38s-.33,1.29-.38,1.53-.23.5.41.32a7,7,0,0,1,2.63.24.73.73,0,0,1,.3.83c-.09.33-.05,1.46-3.51,2.67a9.8,9.8,0,0,1-5.82-.39s-2.38-.93-1.85-3.25a4.91,4.91,0,0,1,.78-1.48s.3-.66-.09-1c0,0-.48-.36-1.19.72-.88,1.33-2.12,6.13,2.53,7.53a10.42,10.42,0,0,0,7.82-1A6.75,6.75,0,0,0,56.48,22a4,4,0,0,0,.53-.75,6.19,6.19,0,0,0,.88-3.3c5.6,3.44,11.71.5,11.71.5a4.22,4.22,0,0,0,2.9,3.74,2.89,2.89,0,0,0,2.36-.39c2.92-2.52-2.28-5.34-2.28-5.34,1.58-1.55.55-5.91.49-6.22s0-.15,0-.15c1.38.93,6.32,6.4,6.53,6.54,0,0,0,0,0,0-.43.32-2.34,3.59-1.25,5.42s3.3.4,3.3.4c2.66-1.75,1.19-5.31,1.07-5.53m-11.1-3.71.11-.12a1.12,1.12,0,0,1,.44,1,.85.85,0,0,1-.91,1,2.56,2.56,0,0,1,.36-1.8m2.07,6.34c.36.81-.48.7-.72.66a1.94,1.94,0,0,1-1.24-.86,1.41,1.41,0,0,1,0-.95s1.67.34,2,1.15m7.46.84c-.53.67-1,.28-1,.28-.85-.65-.07-2.11-.07-2.11.5-.89,1.22-.31,1.39,0a1.78,1.78,0,0,1-.31,1.79M119.85,23c.07-.34-.08-.9-.93-1.12a1.45,1.45,0,0,0-1.74.82c-.41,1,.37,1.58,1.24,1.61A1.42,1.42,0,0,0,119.85,23m-63.7,1.66c3.43-1,4.77-2.54,5.06-3s-.14-.45-.14-.45a12.2,12.2,0,0,0-4.44,2.13,3,3,0,0,0-.74,1c-.29.52.26.35.26.35m65.93-20c-.68,2.48,1.09,10.08,1.28,11.86,0,0,.25,2.28-1.2,2.47-1.69.21-2.17-1-2.17-2.33,0,0,0-.07,0-.05-.33.62-4.81,3.47-7.83,3a4,4,0,0,1-2.28-1.76,3.27,3.27,0,0,1-3.08,1.66,2.47,2.47,0,0,1-2.19-1.89,49.07,49.07,0,0,1-.72-11.14S103.69,3,103,1.93c0,0-.21-.34-.38.08s-1.14,2.56-.07,8.52c0,0,1.28,5.5-.18,7s-5.71,3.83-9.75,2.29c0,0-2.38-.92-1.85-3.24a5,5,0,0,1,.77-1.49s.3-.66-.08-1c0,0-.48-.36-1.19.72-.88,1.33-2.11,6.13,2.52,7.53s10.06-2,10.66-3.45a3.4,3.4,0,0,0,3.18,2.94,3.85,3.85,0,0,0,3.17-1.42s2.51,4.51,9.29-1a2.39,2.39,0,0,0,2.65,1.87s3.11,0,3-5c0-2.23-.61-8-.73-8.87s.2-.57.52-.35.43-.08.43-.08a8.3,8.3,0,0,0-1.64-4c-.64-.95-1.17,1.49-1.17,1.49m6.52-2.84c-.48-.57-.57-.45-1.25.63a2,2,0,0,0-.21,2c1.61,5.34,1.52,17.1,1.52,17.7s0,1.05.14.79A11.11,11.11,0,0,0,129.94,20c1.39-5.27-.47-13.25-.41-13.7s.44-.33.86-.36.36-.57.09-1-1.4-2.6-1.88-3.17M19.63,21.3a10.23,10.23,0,0,0-3.72,1.79,2.63,2.63,0,0,0-.62.8c-.24.43.22.3.22.3,2.87-.82,4-2.14,4.24-2.51s-.12-.38-.12-.38M9.57,7.7c-.09.07-.3.08-.46-.57a4.19,4.19,0,0,0-.49-1.28c-.16-.19-.58-.32-.74,0s.23,1.28.37,1.76a.47.47,0,0,1-.31.61c-.56.22-.63-.85-.67-1.17a1,1,0,0,0-.44-.87c-.34-.2-.53.4-.53.4A6.08,6.08,0,0,0,7,9.33c.08.23.8.61,1.68-.13s1.36-.69,1.57-.68a.16.16,0,0,0,.19-.18A4.52,4.52,0,0,0,10.21,6C10.08,5.7,9.4,5,9.12,5.17s.34,1,.54,1.53,0,.94-.09,1m29.14,9.74c-.49-2.69-3.59-2.14-4.15-1.63-.18.17-.12,0-.12,0a75.91,75.91,0,0,0-.79-9.07c-.11-.84.2-.58.52-.36s.44-.08.44-.08a8.49,8.49,0,0,0-1.65-4c-.63-.95-1.17,1.49-1.17,1.49C31.12,6.33,33.1,13.91,33,15.69s-1.25,2-1.41,2a.61.61,0,0,1-.28-.07,2.41,2.41,0,0,0,.08-3C27.36,9.13,22,15.7,21.52,17.23c0,.15,0,.15,0,.15C19,15.74,16.63,17,14.84,19.15a10.16,10.16,0,0,1-4.77,3.48A1,1,0,0,1,9,22.25c-.7-1,0-2.46,2.59-3.85s4.87-2.74,5-5-3.53-2-4.3-2.18-.24-1-.24-1c1.33-2.79,3.39-1.76,3.65-1.52s.46,0,.46,0a2.66,2.66,0,0,0,.44-2.55A.71.71,0,0,0,16,5.77c-6.45.94-6.35,5.66-5.7,6.87.85,1.59,3.68.33,4,1.15.07.18-.1.51-.1.51a5.9,5.9,0,0,1-3.15,2.47c-1.84.81-5,1.41-7.07-.24s-1.16-4.37-.59-5.2a3.09,3.09,0,0,0,.66-1.47s.11-.66-.51-.52a2.64,2.64,0,0,0-1.18,1,6.51,6.51,0,0,0-1.08,3.88c.23,5.56,4.8,5.54,5.65,5.64S7.42,21,7.42,21c-.64,2.52.81,3.23.81,3.23,2.5,1.52,5.06-.89,6.74-2.68a10.94,10.94,0,0,1,3.35-2.6A.63.63,0,0,1,19,19a6.39,6.39,0,0,0,4.38,2.07c3.95.53,9.75-1.83,10-1.91l.21-.07a3.33,3.33,0,0,0,2.32,2.15c3.6.36,2.78-3.82,2.78-3.82m-9.18-.64c-.29.8-1.85,1.67-3.21,1.88S23.27,19,23,18.54a.78.78,0,0,1,0-.75s1.92-3.67,5.3-2.59c0,0,1.59.58,1.22,1.6M36.1,19c-.59-.15-.32-.78-.32-.78a.48.48,0,0,1,.58-.22.49.49,0,0,1,.43.51.52.52,0,0,1-.69.49M2,8.53a4.15,4.15,0,0,0,2-.66C4.93,7.28,7,5.23,8,5a.36.36,0,0,0,.29-.4C8.22,4.24,8,2,8,2a.6.6,0,0,0-.33-.38A1.51,1.51,0,0,0,5.65,2.75c-.13.69.81,1.73.81,1.73s.13.15-.1.44S3.43,7.18,2.7,7.69s-1.07.86-.69.84m32.2,13.15c.27-.43-.12-.38-.12-.38a10.23,10.23,0,0,0-3.72,1.79,2.48,2.48,0,0,0-.62.8c-.24.43.22.3.22.3,2.87-.82,4-2.14,4.24-2.51"/><g class="cls-5"><rect class="cls-6" x="143.97" y="10.82" width="19.31" height="11.2"/></g><g class="cls-7"><rect class="cls-8" x="144.04" y="25.23" width="19.18" height="17.42"/></g></svg>